solid Trelino plug
facet normal 0.0 0.0 -1.0
  outer loop
    vertex -7.727406610312546 2.0705523608201646 0.0
    vertex -7.727406610312546 -2.0705523608201695 0.0
    vertex -7.999999999999999 -2.572996239482618e-15 0.0
  endloop
endfacet
facet normal 0.0 0.0 -1.0
  outer loop
    vertex -7.727406610312546 -2.0705523608201695 0.0
    vertex -7.727406610312546 2.0705523608201646 0.0
    vertex -6.928203230275509 3.999999999999999 0.0
  endloop
endfacet
facet normal 0.0 0.0 -1.0
  outer loop
    vertex -7.727406610312546 -2.0705523608201695 0.0
    vertex -6.928203230275509 3.999999999999999 0.0
    vertex -6.928203230275506 -4.0000000000000036 0.0
  endloop
endfacet
facet normal 0.0 0.0 -1.0
  outer loop
    vertex -6.928203230275506 -4.0000000000000036 0.0
    vertex -6.928203230275509 3.999999999999999 0.0
    vertex -5.65685424949238 5.656854249492381 0.0
  endloop
endfacet
facet normal 0.0 0.0 -1.0
  outer loop
    vertex -6.928203230275506 -4.0000000000000036 0.0
    vertex -5.65685424949238 5.656854249492381 0.0
    vertex -5.656854249492376 -5.656854249492384 0.0
  endloop
endfacet
facet normal 0.0 0.0 -1.0
  outer loop
    vertex -5.656854249492376 -5.656854249492384 0.0
    vertex -5.65685424949238 5.656854249492381 0.0
    vertex -3.999999999999998 6.928203230275509 0.0
  endloop
endfacet
facet normal 0.0 0.0 -1.0
  outer loop
    vertex -5.656854249492376 -5.656854249492384 0.0
    vertex -3.999999999999998 6.928203230275509 0.0
    vertex -3.999999999999997 -6.9282032302755105 0.0
  endloop
endfacet
facet normal 0.0 0.0 -1.0
  outer loop
    vertex -3.999999999999997 -6.9282032302755105 0.0
    vertex -3.999999999999998 6.928203230275509 0.0
    vertex -2.0705523608201633 7.7274066103125465 0.0
  endloop
endfacet
facet normal 0.0 0.0 -1.0
  outer loop
    vertex -3.999999999999997 -6.9282032302755105 0.0
    vertex -2.0705523608201633 7.7274066103125465 0.0
    vertex -2.070552360820165 -7.727406610312546 0.0
  endloop
endfacet
facet normal 0.0 0.0 -1.0
  outer loop
    vertex -2.070552360820165 -7.727406610312546 0.0
    vertex -2.0705523608201633 7.7274066103125465 0.0
    vertex -1.4695761589768238e-15 -7.999999999999999 0.0
  endloop
endfacet
facet normal 0.0 0.0 -1.0
  outer loop
    vertex -1.4695761589768238e-15 -7.999999999999999 0.0
    vertex -2.0705523608201633 7.7274066103125465 0.0
    vertex 2.2662155590591915e-15 7.999999999999999 0.0
  endloop
endfacet
facet normal 0.0 0.0 -1.0
  outer loop
    vertex -1.4695761589768238e-15 -7.999999999999999 0.0
    vertex 2.2662155590591915e-15 7.999999999999999 0.0
    vertex 2.070552360820162 -7.7274066103125465 0.0
  endloop
endfacet
facet normal 0.0 0.0 -1.0
  outer loop
    vertex 2.070552360820162 -7.7274066103125465 0.0
    vertex 2.2662155590591915e-15 7.999999999999999 0.0
    vertex 2.0705523608201677 7.727406610312546 0.0
  endloop
endfacet
facet normal 0.0 0.0 -1.0
  outer loop
    vertex 2.070552360820162 -7.7274066103125465 0.0
    vertex 2.0705523608201677 7.727406610312546 0.0
    vertex 3.9999999999999942 -6.928203230275512 0.0
  endloop
endfacet
facet normal 0.0 0.0 -1.0
  outer loop
    vertex 3.9999999999999942 -6.928203230275512 0.0
    vertex 2.0705523608201677 7.727406610312546 0.0
    vertex 4.0 6.928203230275508 0.0
  endloop
endfacet
facet normal 0.0 0.0 -1.0
  outer loop
    vertex 3.9999999999999942 -6.928203230275512 0.0
    vertex 4.0 6.928203230275508 0.0
    vertex 5.6568542494923735 -5.656854249492387 0.0
  endloop
endfacet
facet normal 0.0 0.0 -1.0
  outer loop
    vertex 5.6568542494923735 -5.656854249492387 0.0
    vertex 4.0 6.928203230275508 0.0
    vertex 5.656854249492381 5.656854249492381 0.0
  endloop
endfacet
facet normal 0.0 0.0 -1.0
  outer loop
    vertex 5.6568542494923735 -5.656854249492387 0.0
    vertex 5.656854249492381 5.656854249492381 0.0
    vertex 6.928203230275503 -4.00000000000001 0.0
  endloop
endfacet
facet normal 0.0 0.0 -1.0
  outer loop
    vertex 6.928203230275503 -4.00000000000001 0.0
    vertex 5.656854249492381 5.656854249492381 0.0
    vertex 6.928203230275509 3.999999999999999 0.0
  endloop
endfacet
facet normal 0.0 0.0 -1.0
  outer loop
    vertex 6.928203230275503 -4.00000000000001 0.0
    vertex 6.928203230275509 3.999999999999999 0.0
    vertex 7.727406610312543 -2.070552360820179 0.0
  endloop
endfacet
facet normal 0.0 0.0 -1.0
  outer loop
    vertex 7.727406610312543 -2.070552360820179 0.0
    vertex 6.928203230275509 3.999999999999999 0.0
    vertex 7.727406610312546 2.070552360820166 0.0
  endloop
endfacet
facet normal 0.0 0.0 -1.0
  outer loop
    vertex 7.727406610312543 -2.070552360820179 0.0
    vertex 7.727406610312546 2.070552360820166 0.0
    vertex 7.999999999999999 -1.617028959383777e-14 0.0
  endloop
endfacet
facet normal -0.0 -0.0 1.0
  outer loop
    vertex -2.588190451025204 -9.659258262890683 25.0
    vertex -2.0705523608201633 -7.727406610312546 25.0
    vertex -2.0705523608201633 7.727406610312546 25.0
  endloop
endfacet
facet normal -0.0 -0.0 1.0
  outer loop
    vertex -2.0705523608201633 -7.727406610312546 25.0
    vertex -2.588190451025204 -9.659258262890683 25.0
    vertex 1.0574874309554614e-15 -10.0 25.0
  endloop
endfacet
facet normal -0.0 -0.0 1.0
  outer loop
    vertex -2.0705523608201633 -7.727406610312546 25.0
    vertex 1.0574874309554614e-15 -10.0 25.0
    vertex 7.049916206369744e-16 -7.999999999999998 25.0
  endloop
endfacet
facet normal -0.0 -0.0 1.0
  outer loop
    vertex 7.049916206369744e-16 -7.999999999999998 25.0
    vertex 1.0574874309554614e-15 -10.0 25.0
    vertex 2.070552360820164 -7.727406610312546 25.0
  endloop
endfacet
facet normal -0.0 -0.0 1.0
  outer loop
    vertex 2.070552360820164 -7.727406610312546 25.0
    vertex 1.0574874309554614e-15 -10.0 25.0
    vertex 2.5881904510252056 -9.659258262890683 25.0
  endloop
endfacet
facet normal -0.0 -0.0 1.0
  outer loop
    vertex 2.070552360820164 -7.727406610312546 25.0
    vertex 2.5881904510252056 -9.659258262890683 25.0
    vertex 2.070552360820167 7.727406610312544 25.0
  endloop
endfacet
facet normal -0.0 -0.0 1.0
  outer loop
    vertex -9.659258262890681 -2.5881904510252105 25.0
    vertex -9.659258262890685 2.588190451025207 25.0
    vertex -10.0 -1.4099832412739487e-15 25.0
  endloop
endfacet
facet normal -0.0 -0.0 1.0
  outer loop
    vertex -9.659258262890685 2.588190451025207 25.0
    vertex -9.659258262890681 -2.5881904510252105 25.0
    vertex -8.660254037844386 5.000000000000002 25.0
  endloop
endfacet
facet normal -0.0 -0.0 1.0
  outer loop
    vertex -8.660254037844386 5.000000000000002 25.0
    vertex -9.659258262890681 -2.5881904510252105 25.0
    vertex -8.660254037844386 -5.0000000000000036 25.0
  endloop
endfacet
facet normal -0.0 -0.0 1.0
  outer loop
    vertex -8.660254037844386 5.000000000000002 25.0
    vertex -8.660254037844386 -5.0000000000000036 25.0
    vertex -7.071067811865473 7.071067811865477 25.0
  endloop
endfacet
facet normal -0.0 -0.0 1.0
  outer loop
    vertex -7.071067811865473 7.071067811865477 25.0
    vertex -8.660254037844386 -5.0000000000000036 25.0
    vertex -7.07106781186547 -7.071067811865479 25.0
  endloop
endfacet
facet normal -0.0 -0.0 1.0
  outer loop
    vertex -7.071067811865473 7.071067811865477 25.0
    vertex -7.07106781186547 -7.071067811865479 25.0
    vertex -4.9999999999999964 8.660254037844387 25.0
  endloop
endfacet
facet normal -0.0 -0.0 1.0
  outer loop
    vertex -4.9999999999999964 8.660254037844387 25.0
    vertex -7.07106781186547 -7.071067811865479 25.0
    vertex -4.999999999999995 -8.66025403784439 25.0
  endloop
endfacet
facet normal -0.0 -0.0 1.0
  outer loop
    vertex -4.9999999999999964 8.660254037844387 25.0
    vertex -4.999999999999995 -8.66025403784439 25.0
    vertex -2.5881904510252043 9.659258262890685 25.0
  endloop
endfacet
facet normal -0.0 -0.0 1.0
  outer loop
    vertex -2.5881904510252043 9.659258262890685 25.0
    vertex -4.999999999999995 -8.66025403784439 25.0
    vertex -2.588190451025204 -9.659258262890683 25.0
  endloop
endfacet
facet normal -0.0 -0.0 1.0
  outer loop
    vertex -2.5881904510252043 9.659258262890685 25.0
    vertex -2.588190451025204 -9.659258262890683 25.0
    vertex -2.0705523608201633 7.727406610312546 25.0
  endloop
endfacet
facet normal -0.0 -0.0 1.0
  outer loop
    vertex -2.5881904510252043 9.659258262890685 25.0
    vertex -2.0705523608201633 7.727406610312546 25.0
    vertex 2.46747067222941e-15 10.0 25.0
  endloop
endfacet
facet normal -0.0 -0.0 1.0
  outer loop
    vertex 2.46747067222941e-15 10.0 25.0
    vertex -2.0705523608201633 7.727406610312546 25.0
    vertex 2.114974861910923e-15 7.999999999999999 25.0
  endloop
endfacet
facet normal -0.0 -0.0 1.0
  outer loop
    vertex 2.46747067222941e-15 10.0 25.0
    vertex 2.114974861910923e-15 7.999999999999999 25.0
    vertex 2.070552360820167 7.727406610312544 25.0
  endloop
endfacet
facet normal -0.0 -0.0 1.0
  outer loop
    vertex 2.46747067222941e-15 10.0 25.0
    vertex 2.070552360820167 7.727406610312544 25.0
    vertex 2.588190451025209 9.659258262890683 25.0
  endloop
endfacet
facet normal -0.0 -0.0 1.0
  outer loop
    vertex 2.588190451025209 9.659258262890683 25.0
    vertex 2.070552360820167 7.727406610312544 25.0
    vertex 2.5881904510252056 -9.659258262890683 25.0
  endloop
endfacet
facet normal -0.0 -0.0 1.0
  outer loop
    vertex 2.588190451025209 9.659258262890683 25.0
    vertex 2.5881904510252056 -9.659258262890683 25.0
    vertex 4.999999999999995 -8.660254037844389 25.0
  endloop
endfacet
facet normal -0.0 -0.0 1.0
  outer loop
    vertex 2.588190451025209 9.659258262890683 25.0
    vertex 4.999999999999995 -8.660254037844389 25.0
    vertex 5.000000000000001 8.660254037844387 25.0
  endloop
endfacet
facet normal -0.0 -0.0 1.0
  outer loop
    vertex 5.000000000000001 8.660254037844387 25.0
    vertex 4.999999999999995 -8.660254037844389 25.0
    vertex 7.071067811865469 -7.071067811865482 25.0
  endloop
endfacet
facet normal -0.0 -0.0 1.0
  outer loop
    vertex 5.000000000000001 8.660254037844387 25.0
    vertex 7.071067811865469 -7.071067811865482 25.0
    vertex 7.071067811865476 7.071067811865475 25.0
  endloop
endfacet
facet normal -0.0 -0.0 1.0
  outer loop
    vertex 7.071067811865476 7.071067811865475 25.0
    vertex 7.071067811865469 -7.071067811865482 25.0
    vertex 8.66025403784438 -5.000000000000011 25.0
  endloop
endfacet
facet normal -0.0 -0.0 1.0
  outer loop
    vertex 7.071067811865476 7.071067811865475 25.0
    vertex 8.66025403784438 -5.000000000000011 25.0
    vertex 8.660254037844387 4.999999999999999 25.0
  endloop
endfacet
facet normal -0.0 -0.0 1.0
  outer loop
    vertex 8.660254037844387 4.999999999999999 25.0
    vertex 8.66025403784438 -5.000000000000011 25.0
    vertex 9.659258262890678 -2.5881904510252216 25.0
  endloop
endfacet
facet normal -0.0 -0.0 1.0
  outer loop
    vertex 8.660254037844387 4.999999999999999 25.0
    vertex 9.659258262890678 -2.5881904510252216 25.0
    vertex 9.659258262890688 2.588190451025188 25.0
  endloop
endfacet
facet normal -0.0 -0.0 1.0
  outer loop
    vertex 9.659258262890688 2.588190451025188 25.0
    vertex 9.659258262890678 -2.5881904510252216 25.0
    vertex 10.0 -1.7272294705605872e-14 25.0
  endloop
endfacet
facet normal 0.9209871265792017 0.3814853586001308 -0.07906727419808705
  outer loop
    vertex 6.928203230275509 3.999999999999999 0.0
    vertex 9.659258262890688 2.588190451025188 25.0
    vertex 7.727406610312546 2.070552360820166 0.0
  endloop
endfacet
facet normal 0.9209871265792017 0.3814853586001308 -0.07906727419808705
  outer loop
    vertex 9.659258262890688 2.588190451025188 25.0
    vertex 6.928203230275509 3.999999999999999 0.0
    vertex 8.660254037844387 4.999999999999999 25.0
  endloop
endfacet
facet normal 0.9883409274760887 0.1301175515700689 -0.07906727419808716
  outer loop
    vertex 7.999999999999999 -1.617028959383777e-14 0.0
    vertex 9.659258262890688 2.588190451025188 25.0
    vertex 10.0 -1.7272294705605872e-14 25.0
  endloop
endfacet
facet normal 0.9883409274760887 0.1301175515700689 -0.07906727419808716
  outer loop
    vertex 9.659258262890688 2.588190451025188 25.0
    vertex 7.999999999999999 -1.617028959383777e-14 0.0
    vertex 7.727406610312546 2.070552360820166 0.0
  endloop
endfacet
facet normal 0.9883409274760883 -0.13011755157007207 -0.0790672741980871
  outer loop
    vertex 7.727406610312543 -2.070552360820179 0.0
    vertex 10.0 -1.7272294705605872e-14 25.0
    vertex 9.659258262890678 -2.5881904510252216 25.0
  endloop
endfacet
facet normal 0.9883409274760883 -0.13011755157007207 -0.0790672741980871
  outer loop
    vertex 10.0 -1.7272294705605872e-14 25.0
    vertex 7.727406610312543 -2.070552360820179 0.0
    vertex 7.999999999999999 -1.617028959383777e-14 0.0
  endloop
endfacet
facet normal 0.9209871265792007 -0.3814853586001327 -0.07906727419808707
  outer loop
    vertex 6.928203230275503 -4.00000000000001 0.0
    vertex 9.659258262890678 -2.5881904510252216 25.0
    vertex 8.66025403784438 -5.000000000000011 25.0
  endloop
endfacet
facet normal 0.9209871265792007 -0.3814853586001327 -0.07906727419808707
  outer loop
    vertex 9.659258262890678 -2.5881904510252216 25.0
    vertex 6.928203230275503 -4.00000000000001 0.0
    vertex 7.727406610312543 -2.070552360820179 0.0
  endloop
endfacet
facet normal 0.7908695750091301 -0.6068555688759578 -0.07906727419808707
  outer loop
    vertex 5.6568542494923735 -5.656854249492387 0.0
    vertex 8.66025403784438 -5.000000000000011 25.0
    vertex 7.071067811865469 -7.071067811865482 25.0
  endloop
endfacet
facet normal 0.7908695750091301 -0.6068555688759578 -0.07906727419808707
  outer loop
    vertex 8.66025403784438 -5.000000000000011 25.0
    vertex 5.6568542494923735 -5.656854249492387 0.0
    vertex 6.928203230275503 -4.00000000000001 0.0
  endloop
endfacet
facet normal 0.606855568875956 -0.7908695750091317 -0.07906727419808708
  outer loop
    vertex 7.071067811865469 -7.071067811865482 25.0
    vertex 3.9999999999999942 -6.928203230275512 0.0
    vertex 5.6568542494923735 -5.656854249492387 0.0
  endloop
endfacet
facet normal 0.606855568875956 -0.7908695750091317 -0.07906727419808708
  outer loop
    vertex 3.9999999999999942 -6.928203230275512 0.0
    vertex 7.071067811865469 -7.071067811865482 25.0
    vertex 4.999999999999995 -8.660254037844389 25.0
  endloop
endfacet
facet normal 0.381485358600131 -0.9209871265792015 -0.07906727419808707
  outer loop
    vertex 4.999999999999995 -8.660254037844389 25.0
    vertex 2.070552360820162 -7.7274066103125465 0.0
    vertex 3.9999999999999942 -6.928203230275512 0.0
  endloop
endfacet
facet normal 0.381485358600131 -0.9209871265792015 -0.07906727419808707
  outer loop
    vertex 2.070552360820162 -7.7274066103125465 0.0
    vertex 4.999999999999995 -8.660254037844389 25.0
    vertex 2.5881904510252056 -9.659258262890683 25.0
  endloop
endfacet
facet normal 0.13011755157007032 -0.9883409274760885 -0.07906727419808708
  outer loop
    vertex 2.5881904510252056 -9.659258262890683 25.0
    vertex -1.4695761589768238e-15 -7.999999999999999 0.0
    vertex 2.070552360820162 -7.7274066103125465 0.0
  endloop
endfacet
facet normal 0.13011755157007032 -0.9883409274760885 -0.07906727419808708
  outer loop
    vertex -1.4695761589768238e-15 -7.999999999999999 0.0
    vertex 2.5881904510252056 -9.659258262890683 25.0
    vertex 1.0574874309554614e-15 -10.0 25.0
  endloop
endfacet
facet normal -0.13011755157007063 -0.9883409274760885 -0.0790672741980871
  outer loop
    vertex 1.0574874309554614e-15 -10.0 25.0
    vertex -2.070552360820165 -7.727406610312546 0.0
    vertex -1.4695761589768238e-15 -7.999999999999999 0.0
  endloop
endfacet
facet normal -0.13011755157007063 -0.9883409274760885 -0.0790672741980871
  outer loop
    vertex -2.070552360820165 -7.727406610312546 0.0
    vertex 1.0574874309554614e-15 -10.0 25.0
    vertex -2.588190451025204 -9.659258262890683 25.0
  endloop
endfacet
facet normal -0.38148535860013055 -0.9209871265792017 -0.07906727419808708
  outer loop
    vertex -2.588190451025204 -9.659258262890683 25.0
    vertex -3.999999999999997 -6.9282032302755105 0.0
    vertex -2.070552360820165 -7.727406610312546 0.0
  endloop
endfacet
facet normal -0.38148535860013055 -0.9209871265792017 -0.07906727419808708
  outer loop
    vertex -3.999999999999997 -6.9282032302755105 0.0
    vertex -2.588190451025204 -9.659258262890683 25.0
    vertex -4.999999999999995 -8.66025403784439 25.0
  endloop
endfacet
facet normal -0.6068555688759566 -0.7908695750091311 -0.07906727419808705
  outer loop
    vertex -4.999999999999995 -8.66025403784439 25.0
    vertex -5.656854249492376 -5.656854249492384 0.0
    vertex -3.999999999999997 -6.9282032302755105 0.0
  endloop
endfacet
facet normal -0.6068555688759566 -0.7908695750091311 -0.07906727419808705
  outer loop
    vertex -5.656854249492376 -5.656854249492384 0.0
    vertex -4.999999999999995 -8.66025403784439 25.0
    vertex -7.07106781186547 -7.071067811865479 25.0
  endloop
endfacet
facet normal -0.7908695750091306 -0.6068555688759575 -0.07906727419808707
  outer loop
    vertex -8.660254037844386 -5.0000000000000036 25.0
    vertex -5.656854249492376 -5.656854249492384 0.0
    vertex -7.07106781186547 -7.071067811865479 25.0
  endloop
endfacet
facet normal -0.7908695750091306 -0.6068555688759575 -0.07906727419808707
  outer loop
    vertex -5.656854249492376 -5.656854249492384 0.0
    vertex -8.660254037844386 -5.0000000000000036 25.0
    vertex -6.928203230275506 -4.0000000000000036 0.0
  endloop
endfacet
facet normal -0.9209871265792011 -0.3814853586001317 -0.07906727419808705
  outer loop
    vertex -9.659258262890681 -2.5881904510252105 25.0
    vertex -6.928203230275506 -4.0000000000000036 0.0
    vertex -8.660254037844386 -5.0000000000000036 25.0
  endloop
endfacet
facet normal -0.9209871265792011 -0.3814853586001317 -0.07906727419808705
  outer loop
    vertex -6.928203230275506 -4.0000000000000036 0.0
    vertex -9.659258262890681 -2.5881904510252105 25.0
    vertex -7.727406610312546 -2.0705523608201695 0.0
  endloop
endfacet
facet normal -0.9883409274760885 -0.13011755157007074 -0.07906727419808708
  outer loop
    vertex -10.0 -1.4099832412739487e-15 25.0
    vertex -7.727406610312546 -2.0705523608201695 0.0
    vertex -9.659258262890681 -2.5881904510252105 25.0
  endloop
endfacet
facet normal -0.9883409274760885 -0.13011755157007074 -0.07906727419808708
  outer loop
    vertex -7.727406610312546 -2.0705523608201695 0.0
    vertex -10.0 -1.4099832412739487e-15 25.0
    vertex -7.999999999999999 -2.572996239482618e-15 0.0
  endloop
endfacet
facet normal -0.9883409274760885 0.13011755157007004 -0.07906727419808714
  outer loop
    vertex -10.0 -1.4099832412739487e-15 25.0
    vertex -7.727406610312546 2.0705523608201646 0.0
    vertex -7.999999999999999 -2.572996239482618e-15 0.0
  endloop
endfacet
facet normal -0.9883409274760885 0.13011755157007004 -0.07906727419808714
  outer loop
    vertex -7.727406610312546 2.0705523608201646 0.0
    vertex -10.0 -1.4099832412739487e-15 25.0
    vertex -9.659258262890685 2.588190451025207 25.0
  endloop
endfacet
facet normal -0.9209871265792012 0.38148535860013144 -0.07906727419808712
  outer loop
    vertex -9.659258262890685 2.588190451025207 25.0
    vertex -6.928203230275509 3.999999999999999 0.0
    vertex -7.727406610312546 2.0705523608201646 0.0
  endloop
endfacet
facet normal -0.9209871265792012 0.38148535860013144 -0.07906727419808712
  outer loop
    vertex -6.928203230275509 3.999999999999999 0.0
    vertex -9.659258262890685 2.588190451025207 25.0
    vertex -8.660254037844386 5.000000000000002 25.0
  endloop
endfacet
facet normal -0.7908695750091307 0.606855568875957 -0.0790672741980871
  outer loop
    vertex -8.660254037844386 5.000000000000002 25.0
    vertex -5.65685424949238 5.656854249492381 0.0
    vertex -6.928203230275509 3.999999999999999 0.0
  endloop
endfacet
facet normal -0.7908695750091307 0.606855568875957 -0.0790672741980871
  outer loop
    vertex -5.65685424949238 5.656854249492381 0.0
    vertex -8.660254037844386 5.000000000000002 25.0
    vertex -7.071067811865473 7.071067811865477 25.0
  endloop
endfacet
facet normal -0.6068555688759564 0.7908695750091312 -0.0790672741980871
  outer loop
    vertex -7.071067811865473 7.071067811865477 25.0
    vertex -3.999999999999998 6.928203230275509 0.0
    vertex -5.65685424949238 5.656854249492381 0.0
  endloop
endfacet
facet normal -0.6068555688759564 0.7908695750091312 -0.0790672741980871
  outer loop
    vertex -3.999999999999998 6.928203230275509 0.0
    vertex -7.071067811865473 7.071067811865477 25.0
    vertex -4.9999999999999964 8.660254037844387 25.0
  endloop
endfacet
facet normal -0.38148535860013155 0.9209871265792012 -0.0790672741980871
  outer loop
    vertex -4.9999999999999964 8.660254037844387 25.0
    vertex -2.0705523608201633 7.7274066103125465 0.0
    vertex -3.999999999999998 6.928203230275509 0.0
  endloop
endfacet
facet normal -0.38148535860013155 0.9209871265792012 -0.0790672741980871
  outer loop
    vertex -2.0705523608201633 7.7274066103125465 0.0
    vertex -4.9999999999999964 8.660254037844387 25.0
    vertex -2.5881904510252043 9.659258262890685 25.0
  endloop
endfacet
facet normal -0.13011755157006985 0.9883409274760885 -0.0790672741980871
  outer loop
    vertex -2.5881904510252043 9.659258262890685 25.0
    vertex 2.2662155590591915e-15 7.999999999999999 0.0
    vertex -2.0705523608201633 7.7274066103125465 0.0
  endloop
endfacet
facet normal -0.13011755157006985 0.9883409274760885 -0.0790672741980871
  outer loop
    vertex 2.2662155590591915e-15 7.999999999999999 0.0
    vertex -2.5881904510252043 9.659258262890685 25.0
    vertex 2.46747067222941e-15 10.0 25.0
  endloop
endfacet
facet normal 0.13011755157007046 0.9883409274760885 -0.0790672741980871
  outer loop
    vertex 2.46747067222941e-15 10.0 25.0
    vertex 2.0705523608201677 7.727406610312546 0.0
    vertex 2.2662155590591915e-15 7.999999999999999 0.0
  endloop
endfacet
facet normal 0.13011755157007046 0.9883409274760885 -0.0790672741980871
  outer loop
    vertex 2.0705523608201677 7.727406610312546 0.0
    vertex 2.46747067222941e-15 10.0 25.0
    vertex 2.588190451025209 9.659258262890683 25.0
  endloop
endfacet
facet normal 0.38148535860013155 0.9209871265792012 -0.07906727419808715
  outer loop
    vertex 2.588190451025209 9.659258262890683 25.0
    vertex 4.0 6.928203230275508 0.0
    vertex 2.0705523608201677 7.727406610312546 0.0
  endloop
endfacet
facet normal 0.38148535860013155 0.9209871265792012 -0.07906727419808715
  outer loop
    vertex 4.0 6.928203230275508 0.0
    vertex 2.588190451025209 9.659258262890683 25.0
    vertex 5.000000000000001 8.660254037844387 25.0
  endloop
endfacet
facet normal 0.606855568875957 0.7908695750091308 -0.07906727419808712
  outer loop
    vertex 5.000000000000001 8.660254037844387 25.0
    vertex 5.656854249492381 5.656854249492381 0.0
    vertex 4.0 6.928203230275508 0.0
  endloop
endfacet
facet normal 0.606855568875957 0.7908695750091308 -0.07906727419808712
  outer loop
    vertex 5.656854249492381 5.656854249492381 0.0
    vertex 5.000000000000001 8.660254037844387 25.0
    vertex 7.071067811865476 7.071067811865475 25.0
  endloop
endfacet
facet normal 0.7908695750091311 0.6068555688759568 -0.07906727419808711
  outer loop
    vertex 5.656854249492381 5.656854249492381 0.0
    vertex 8.660254037844387 4.999999999999999 25.0
    vertex 6.928203230275509 3.999999999999999 0.0
  endloop
endfacet
facet normal 0.7908695750091311 0.6068555688759568 -0.07906727419808711
  outer loop
    vertex 8.660254037844387 4.999999999999999 25.0
    vertex 5.656854249492381 5.656854249492381 0.0
    vertex 7.071067811865476 7.071067811865475 25.0
  endloop
endfacet
facet normal 0.0 0.0 1.0
  outer loop
    vertex -2.0705523608201633 -7.727406610312546 40.0
    vertex 2.114974861910923e-15 7.999999999999999 40.0
    vertex -2.0705523608201633 7.727406610312546 40.0
  endloop
endfacet
facet normal 0.0 0.0 1.0
  outer loop
    vertex 2.114974861910923e-15 7.999999999999999 40.0
    vertex -2.0705523608201633 -7.727406610312546 40.0
    vertex 7.049916206369744e-16 -7.999999999999998 40.0
  endloop
endfacet
facet normal 0.0 0.0 1.0
  outer loop
    vertex 2.114974861910923e-15 7.999999999999999 40.0
    vertex 7.049916206369744e-16 -7.999999999999998 40.0
    vertex 2.070552360820164 -7.727406610312546 40.0
  endloop
endfacet
facet normal 0.0 0.0 1.0
  outer loop
    vertex 2.114974861910923e-15 7.999999999999999 40.0
    vertex 2.070552360820164 -7.727406610312546 40.0
    vertex 2.070552360820167 7.727406610312544 40.0
  endloop
endfacet
facet normal 0.1305261922200525 0.9914448613738104 0.0
  outer loop
    vertex 2.114974861910923e-15 7.999999999999999 40.0
    vertex 2.070552360820167 7.727406610312544 25.0
    vertex 2.114974861910923e-15 7.999999999999999 25.0
  endloop
endfacet
facet normal 0.1305261922200525 0.9914448613738104 0.0
  outer loop
    vertex 2.070552360820167 7.727406610312544 25.0
    vertex 2.114974861910923e-15 7.999999999999999 40.0
    vertex 2.070552360820167 7.727406610312544 40.0
  endloop
endfacet
facet normal -0.13052619222005177 0.9914448613738104 0.0
  outer loop
    vertex -2.0705523608201633 7.727406610312546 40.0
    vertex 2.114974861910923e-15 7.999999999999999 25.0
    vertex -2.0705523608201633 7.727406610312546 25.0
  endloop
endfacet
facet normal -0.13052619222005177 0.9914448613738104 0.0
  outer loop
    vertex 2.114974861910923e-15 7.999999999999999 25.0
    vertex -2.0705523608201633 7.727406610312546 40.0
    vertex 2.114974861910923e-15 7.999999999999999 40.0
  endloop
endfacet
facet normal -1.0 -2.2808157257317537e-17 -0.0
  outer loop
    vertex -2.0705523608201633 7.727406610312546 40.0
    vertex -2.0705523608201633 -7.727406610312546 25.0
    vertex -2.0705523608201633 -7.727406610312546 40.0
  endloop
endfacet
facet normal -1.0 -2.2808157257317537e-17 -0.0
  outer loop
    vertex -2.0705523608201633 -7.727406610312546 25.0
    vertex -2.0705523608201633 7.727406610312546 40.0
    vertex -2.0705523608201633 7.727406610312546 25.0
  endloop
endfacet
facet normal -0.13052619222005124 -0.9914448613738106 -0.0
  outer loop
    vertex 7.049916206369744e-16 -7.999999999999998 40.0
    vertex -2.0705523608201633 -7.727406610312546 25.0
    vertex 7.049916206369744e-16 -7.999999999999998 25.0
  endloop
endfacet
facet normal -0.13052619222005124 -0.9914448613738106 -0.0
  outer loop
    vertex -2.0705523608201633 -7.727406610312546 25.0
    vertex 7.049916206369744e-16 -7.999999999999998 40.0
    vertex -2.0705523608201633 -7.727406610312546 40.0
  endloop
endfacet
facet normal 0.13052619222005124 -0.9914448613738105 0.0
  outer loop
    vertex 2.070552360820164 -7.727406610312546 40.0
    vertex 7.049916206369744e-16 -7.999999999999998 25.0
    vertex 2.070552360820164 -7.727406610312546 25.0
  endloop
endfacet
facet normal 0.13052619222005124 -0.9914448613738105 0.0
  outer loop
    vertex 7.049916206369744e-16 -7.999999999999998 25.0
    vertex 2.070552360820164 -7.727406610312546 40.0
    vertex 7.049916206369744e-16 -7.999999999999998 40.0
  endloop
endfacet
facet normal 1.0 -1.824652580585403e-16 0.0
  outer loop
    vertex 2.070552360820167 7.727406610312544 25.0
    vertex 2.070552360820164 -7.727406610312546 40.0
    vertex 2.070552360820164 -7.727406610312546 25.0
  endloop
endfacet
facet normal 1.0 -1.824652580585403e-16 0.0
  outer loop
    vertex 2.070552360820164 -7.727406610312546 40.0
    vertex 2.070552360820167 7.727406610312544 25.0
    vertex 2.070552360820167 7.727406610312544 40.0
  endloop
endfacet
endsolid Trelino plug
